<?xml version="1.0" encoding="utf-8" ?>
<svg xmlns="http://www.w3.org/2000/svg" xmlns:xlink="http://www.w3.org/1999/xlink" width="512" height="512">
	<defs>
		<linearGradient id="gradient_0" gradientUnits="userSpaceOnUse" x1="258.276" y1="510.681" x2="251.347" y2="28.947201">
			<stop offset="0" stop-color="#FF0075"/>
			<stop offset="1" stop-color="#007CFE"/>
		</linearGradient>
	</defs>
	<path fill="url(#gradient_0)" d="M92.9592 35.5801L93.4592 35.2238C94.6753 24.9782 98.2188 16.415 106.487 9.85713C117.84 0.852388 124.311 1.98321 137.667 1.97848L377.118 1.97018C383.894 1.97003 389.481 1.24387 395.759 4.12112C407.44 9.47487 415.795 18.4834 417.944 31.3575C418.173 32.7266 418.249 34.9508 418.908 36.1461C429.913 32.2773 452.372 31.4005 463.506 32.2C504.099 35.1149 505.383 57.276 504.551 91.0715C504.542 124.345 492.873 161.188 482.989 192.5C480.543 200.25 478.527 208.302 475.68 215.902L474.947 219.362L501.978 262.281C504.703 267.057 506.811 272.106 509.389 276.938C510.616 279.238 510.385 291.684 509.932 294.694C505.861 299.894 497.185 302.477 491.269 304.561C489.276 305.264 490.453 306.518 490.56 308.277C491.126 310.079 491.376 312.062 491.817 313.91L505.311 376.684C508.097 390.881 511.864 404.852 507.666 419.23L507.614 419.277C506.577 424.692 504.44 430.007 502.192 435.014C488.16 466.265 464.827 480.391 432.697 490.485C409.37 497.813 385.63 502.05 361.475 505.55L325.873 509.842C318.761 510.351 311.464 510.044 304.334 510.043L192.952 509.942L124.047 501.183C87.2129 494.092 40.5223 483.567 18.2573 450.378L10.0582 435.83C0.0657146 412.833 0.679102 403.052 6.0015 379.163L20.0266 314.355L21.6222 305.723C14.8514 301.873 7.66092 299.808 2.17271 293.72C1.72157 290.685 1.99027 287.31 1.99484 284.236C2.00591 276.797 2.73671 276.099 6.07963 269.317C14.3006 252.641 25.6045 237.953 35.316 222.185C37.5229 218.602 36.2535 216.646 35.3418 212.783L30.9939 198.411C20.3815 165.199 7.29739 126.133 7.77236 90.8607C7.3891 78.7615 7.43732 65.9313 11.3588 54.3536C20.2835 28.0049 56.5672 30.6718 79 33.244C83.5367 33.7642 88.6381 34.0749 92.9592 35.5801ZM239.713 405.6C244.568 408.703 249.427 410.913 255.25 410.979C271.457 411.162 276.482 401.16 286.955 391.288C293.273 383.41 300.576 377.486 300.78 366.213C301.043 351.709 292.068 332.984 276.375 330.306C273.292 329.78 270.034 329.885 266.913 329.842L250.056 329.864C245.298 329.874 240.194 329.588 235.502 330.468C220.016 333.373 211.131 351.061 211.242 365.636C211.339 378.297 224.724 391.496 233.746 400.334C234.365 400.94 239.624 405.359 239.713 405.6ZM429.731 93.849C415.125 96.5542 388.696 117.452 379.504 129.112L409.56 146.49L433.065 165.875C437.92 150.682 437.808 134.26 438.73 118.5C439.192 110.592 443.235 92.4199 429.731 93.849ZM72.8841 103.131L74.178 130.137C74.8895 140.997 75.4419 154.87 79.3653 165.186C83.1556 163.116 86.0146 159.541 89.3416 156.797C99.1966 148.667 110.098 141.411 121.283 135.251C125.028 133.189 129.204 131.358 132.647 128.825C131.869 127.972 127.562 123.611 127.445 123.02C125.022 121.075 122.892 118.571 120.493 116.538C112.505 109.769 95.5877 96.6488 84.8617 94.7366L83.9235 94.5548C78.1611 93.601 73.5179 97.5624 72.8841 103.131ZM359.921 272.55C344.845 275.372 347.655 296.006 362.613 294.189C374.889 291.132 375.273 275.104 364 272.748L363.68 272.675C362.442 272.41 361.177 272.506 359.921 272.55ZM150.536 272.808C148.909 273.136 147.448 273.466 145.943 274.179L145.639 274.319C135.367 279.205 140.145 294.261 152.438 294.013C167.413 291.329 165.148 272.117 150.536 272.808Z"/>
	<path fill="#4CC9F0" d="M92.9592 35.5801L93.4592 35.2238C94.6753 24.9782 98.2188 16.415 106.487 9.85713C117.84 0.852388 124.311 1.98321 137.667 1.97848L377.118 1.97018C383.894 1.97003 389.481 1.24387 395.759 4.12112C407.44 9.47487 415.795 18.4834 417.944 31.3575C418.173 32.7266 418.249 34.9508 418.908 36.1461C417.125 37.2389 415.08 37.9395 413.171 38.7917L397.574 45.5746C384.974 51.4256 369.433 62.4954 359.198 71.6681C349.468 80.5316 339.958 90.0218 331.873 100.429L323.842 111.469C322.348 113.587 320.886 115.973 319.094 117.845C311.784 116.333 304.253 115.921 296.828 115.279C268.052 112.792 239.092 112.975 210.339 115.669C204.43 116.223 198.07 116.476 192.298 117.83C184.988 105.501 173.256 90.7066 162.792 80.962L162.74 80.9619C153.763 68.8984 124.449 49.9227 111.13 43.5922L97.1862 37.9485C95.5649 37.3464 94.5843 36.8067 93.2817 35.8166L92.9592 35.5801Z"/>
</svg>
