<?xml version="1.0" encoding="utf-8" ?>
<svg xmlns="http://www.w3.org/2000/svg" xmlns:xlink="http://www.w3.org/1999/xlink" width="512" height="512">
	<path fill="#D20053" d="M54.4544 14.4864C57.3418 10.3744 62.661 5.45432 67.1316 3.06748L67.4668 2.89664C69.4311 1.88035 71.9436 2.03939 74.1059 2.01543L85.5947 2.14531C82.1844 4.747 66.5642 14.2687 62.4834 15.5515C60.4503 15.5156 55.9466 15.9787 54.4544 14.4864Z"/>
	<defs>
		<linearGradient id="gradient_0" gradientUnits="userSpaceOnUse" x1="41.875801" y1="523.78998" x2="470.44101" y2="-12.1867">
			<stop offset="0" stop-color="#FF0065"/>
			<stop offset="1" stop-color="#00ACFF"/>
		</linearGradient>
	</defs>
	<path fill="url(#gradient_0)" d="M335.758 2.00649L470.052 2.00334C474.549 2.00487 479.872 1.45627 484.283 2.33662C497.121 4.89834 507.295 18.1766 509.719 30.4454C510.321 33.4896 510.037 36.9979 510.043 40.0959L510.027 120.881L510.024 176.989L510.022 391.25L510.019 458.893L510.017 471.666C509.993 489.258 504.432 500.886 487.254 508.375C481.664 510.812 476.083 509.999 470.13 510.001L42.5088 510.013C38.6866 510.015 34.7899 510.188 30.978 509.986C17.0581 509.248 3.57042 492.275 2.1284 478.722C1.64087 474.14 1.97566 469.272 1.97459 464.649L1.97872 64.8739L2.09528 33.0889C3.07174 24.5408 8.35897 14.4234 15.0312 9.23194C25.1583 1.35235 44.383 -1.91232 51.445 10.7451C52.2229 12.1394 52.6682 13.8647 53.625 15.1225L54.4544 14.4864C55.9466 15.9787 60.4503 15.5156 62.4834 15.5194C66.5642 14.2687 82.1844 4.747 85.5947 2.27126C87.6332 1.71636 90.3307 2.00747 92.4293 2.0055L161.775 2.00745L335.758 2.00649Z"/>
	<path fill="white" d="M133.041 425.625L363.919 425.612C366.203 425.652 368.366 426.017 370.625 426.193C373.032 426.38 379.772 424.756 377.54 429.375L376.625 429.52L140.5 429.186C138.495 429.103 131.05 429.606 132.26 425.875L133.041 425.625Z"/>
	<path fill="white" d="M151.201 275.678C154.94 268.621 159.839 261.907 164.625 255.518C182.244 231.998 202.419 209.202 231.359 200.248C262.777 190.527 294.899 200.751 318.684 222.178C329.455 231.881 355.097 262.446 360.239 276.23C355.098 279.954 348.981 282.922 343.221 285.599C341.836 286.243 333.604 289.437 333.213 289.887L303.604 298.625C289.799 302.333 293.452 300.757 279.611 298.874C268.716 297.392 254.879 296.226 263.232 281.118C268.56 271.482 286.067 263.417 265.786 251.898C256.191 246.449 242.644 249.899 237.635 259.551C232.386 269.666 247.639 276.457 249.98 283.375C251.492 287.843 251.157 294.359 245.625 295.745L237.962 297.266C229.328 299.021 220.739 300.434 211.935 299.337C210.778 299.192 208.886 298.664 207.768 298.804C204.632 297.761 201.125 297.33 197.911 296.446C184.772 292.835 171.751 287.965 160 280.995C157.158 279.308 154.414 277.334 151.482 275.82L151.201 275.678Z"/>
	<path fill="#560BAD" d="M280.251 225.79C290.856 225.875 291.111 238.442 282.212 241.621C272.433 242.83 269.582 228.036 280.251 225.79Z"/>
	<path fill="#560BAD" d="M229.292 226.297C240.072 225.174 243.215 237.737 233.715 241.859C224.37 244.824 219.556 230.617 229.292 226.297Z"/>
	<defs>
		<linearGradient id="gradient_1" gradientUnits="userSpaceOnUse" x1="186.52" y1="298.58499" x2="322.448" y2="86.214104">
			<stop offset="0" stop-color="#5D009E"/>
			<stop offset="1" stop-color="#2E23BF"/>
		</linearGradient>
	</defs>
	<path fill="url(#gradient_1)" d="M163.21 120.27C168.711 120.654 174.528 120.278 180.071 120.281L308.062 120.314L351.245 120.315C358.873 120.317 380.073 117.147 382.017 126.424L381.984 237.312C381.977 251.11 382.308 258.461 371.676 269.061C369.636 271.094 363.356 277.362 360.239 276.23C355.097 262.446 329.455 231.881 318.684 222.178C294.899 200.751 262.777 190.527 231.359 200.248C202.419 209.202 182.244 231.998 164.625 255.518C159.839 261.907 154.94 268.621 151.201 275.678L150.927 275.702C144.363 275.577 133.005 260.031 131.16 253.714C129.674 248.631 129.791 243.398 129.789 238.159L129.794 190.902L129.791 149.362C129.793 142.1 127.094 124.888 134.212 121.245L134.555 121.076C136.393 120.143 138.56 120.245 140.573 120.23L163.21 120.27Z"/>
	<path fill="white" d="M173.496 165.83C187.92 164.621 206.715 181.198 215.185 191.174C209.698 195.198 200.687 198.878 194.172 203.266C188.472 206.811 184.247 211.459 179.195 215.687C171.736 209.401 168.013 201.253 166.125 191.812C164.449 183.428 161.95 167.936 173.496 165.83Z"/>
	<path fill="white" d="M334.652 165.822C340.574 165.209 345.524 167.212 346.741 173.547L346.824 174C347.555 177.846 347.156 181.941 346.798 185.815C345.674 197.966 342.811 207.531 333.368 215.406L320.138 205.139L297.172 191.744L298.027 190.375C305.965 179.145 321.003 168.068 334.652 165.822Z"/>
</svg>
