<?xml version="1.0" encoding="utf-8" ?>
<svg xmlns="http://www.w3.org/2000/svg" xmlns:xlink="http://www.w3.org/1999/xlink" width="512" height="512" viewBox="0 0 512 512">
	<defs>
		<linearGradient id="gradient_0" gradientUnits="userSpaceOnUse" x1="259.21201" y1="14.2171" x2="252.98599" y2="494.811">
			<stop offset="0" stop-color="#FF2184"/>
			<stop offset="1" stop-color="#2609B9"/>
		</linearGradient>
	</defs>
	<path fill="url(#gradient_0)" d="M56.3464 121.042C63.6892 108.868 72.945 97.9227 82.7907 87.7231C128.643 40.2228 190.166 14.0643 256.039 14.2684L274.488 15.0369C332.456 19.753 390.459 45.8754 430.398 88.6121C453.39 113.214 474.147 147.251 484.319 179.49C492.776 204.097 496.324 230.427 496.32 256.387L496.235 267.7C495.34 285.812 492.025 304.109 486.946 321.513L480.927 339.532C480.125 341.6 479.507 344.24 478.152 346.013C477.192 348.799 475.805 351.409 474.588 354.087C438.035 434.55 361.292 488.895 272.302 494.712L242.125 494.795C184.34 491.34 128.366 466.999 87.1861 426.157C82.6686 421.677 77.8323 416.953 74.0421 411.837C62.1838 398.163 51.6554 382.915 43.2541 366.875L34.8349 348.739C20.2859 314.864 14.4753 278.391 16.2489 241.604L17.4837 227.5C21.0073 191.784 35.177 150.622 56.3464 121.042ZM154.383 155.716C146.29 172.186 150.519 181.92 154.157 199.132L158.702 222.166C159.096 224.399 158.72 224.55 157.823 226.573L134.777 280.487C132.945 284.726 129.763 290.163 131.146 294.875L131.381 295.768C141.475 289.434 145.27 279.71 149.887 269.247L160.921 243.805C163.079 238.813 165.098 233.584 167.616 228.771L167.845 228.338L169.222 224.774C169.943 222.75 169.233 221.505 168.724 219.451L167.136 212.275L161.708 183.25C159.512 169.447 160.424 157.856 174.886 151.599C178.848 149.885 183.859 148.965 188.125 149.843C195.515 151.365 210.109 162.17 216.535 167.278L220.984 170.875C223.53 173.025 224.525 172.359 227.798 172.334L287.667 172.388C288.268 172.363 288.712 172.231 289.225 171.919L309.558 157.344C315.73 153.033 322.414 148.31 330.376 149.674L331.375 149.853C344.512 152.479 353.072 162.778 351.442 176.152L346.749 202.812L344.204 216.636L344.173 217.008C343.03 229.697 342.094 223.215 347.144 235.305L359.403 263.589C365.637 278.216 369.125 287.038 379.576 299.423L380.282 300.173C381.966 295.526 380.821 291.97 379.377 287.407L354.957 228.486C352.749 223.631 352.941 222.875 354.214 217.703L361.039 184.067C364.098 165.601 359.44 148.882 340.532 141.151C326.509 135.417 317.41 138.449 306.07 146.784L295.05 154.968C288.973 159.395 286.813 161.177 279.253 161.233L236.036 161.288C232.756 161.29 228.592 161.935 225.554 160.405C209.433 152.285 197.463 134.544 177.25 138.979C167.206 141.183 159.862 147.215 154.383 155.716Z"/>
	<defs>
		<linearGradient id="gradient_1" gradientUnits="userSpaceOnUse" x1="253.37601" y1="148.38499" x2="256.883" y2="369.811">
			<stop offset="0" stop-color="#6923D8"/>
			<stop offset="1" stop-color="#36F4FF"/>
		</linearGradient>
	</defs>
	<path fill="url(#gradient_1)" d="M167.136 212.275L161.708 183.25C159.512 169.447 160.424 157.856 174.886 151.599C178.848 149.885 183.859 148.965 188.125 149.843C195.515 151.365 210.109 162.17 216.535 167.278L220.984 170.875C223.53 173.025 224.525 172.359 227.798 172.334L287.667 172.388C288.268 172.363 288.712 172.231 289.225 171.919L309.558 157.344C315.73 153.033 322.414 148.31 330.376 149.674L331.375 149.853C344.512 152.479 353.072 162.778 351.442 176.152L346.749 202.812L344.204 216.636L344.173 217.008C343.03 229.697 342.094 223.215 347.144 235.305L359.403 263.589C365.637 278.216 369.125 287.038 379.576 299.423L380.282 300.173C378.732 305.824 375.513 311.516 371.795 316.019L368.213 319.949C368.005 320.163 366.736 321.311 366.712 321.522C349.214 336.846 314.045 358.685 290.767 365.347C257.371 374.903 225.137 370.184 194.702 354.625L183.793 348.606C183.542 348.255 182.485 347.754 182.062 347.489L162.058 334.031C147.881 324.169 135.161 313.68 131.381 295.768C141.475 289.434 145.27 279.71 149.887 269.247L160.921 243.805C163.079 238.813 165.098 233.584 167.616 228.771L167.845 228.338L169.222 224.774C169.943 222.75 169.233 221.505 168.724 219.451L167.136 212.275Z"/>
	<path fill="#3F37C9" d="M250.882 327.719L256.346 330.732C256.875 331.055 257.429 331.297 257.995 331.546L260.176 329.522C260.46 329.284 260.357 329.375 260.611 329.019L260.84 330.125C261.427 332.683 261.465 335.803 260.979 338.387C257.613 339.258 255.067 339.141 251.659 338.702C250.683 335.257 250.94 331.286 250.882 327.719Z"/>
	<path fill="#480CA8" d="M250.823 327.719L250.666 327.499C244.147 318.672 229.073 311.5 230.965 297.426C232.434 286.501 237.251 286.757 246.639 286.741L270.492 286.726C274.384 286.728 276.775 286.584 279.028 290.402C281.225 294.125 281.454 300.731 280.307 304.783C277.252 315.577 260.835 326.052 260.611 329.019C260.357 329.375 260.46 329.284 260.176 329.522L257.995 331.546C257.429 331.297 256.875 331.055 256.346 330.732L250.823 327.719Z"/>
</svg>
